<?xml version="1.0" standalone="no"?>
<!DOCTYPE svg PUBLIC "-//W3C//DTD SVG 1.1//EN" "http://www.w3.org/Graphics/SVG/1.1/DTD/svg11.dtd" >
<svg xmlns="http://www.w3.org/2000/svg">
<metadata>
Created by FontPrep 20130207 at Thu Apr  7 10:10:05 2016
 By Chameleon
Copyright (c) 1989, 1990, 2002 Adobe Systems Incorporated.  All Rights Reserved. (c) 1981, 2002 Heidelberger Druckmaschinen AG. All rights reserved.
</metadata>
<defs>
<font id="c50f5e2adada586b2efc070013296a0d" horiz-adv-x='1024' >
  <font-face 
    font-family="TradeGothicLTStd-Bd2"
    font-weight="700"
    font-stretch="normal"
    units-per-em="2048"
    panose-1="0 0 8 0 0 0 0 0 0 0"
    ascent="1479"
    descent="-569"
    x-height="1065"
    cap-height="1479"
    bbox="-342 -469 2048 2001"
    underline-thickness="102"
    underline-position="-102"
    unicode-range="U+0020-FB02"
  />
<missing-glyph horiz-adv-x="1024" 
d="M102 1239v-1044l349 522zM164 102h696l-348 523zM573 717l349 -522v1044zM512 809l348 522h-696zM0 0v1434h1024v-1434h-1024z" />
    <glyph glyph-name="fi" unicode="fi" horiz-adv-x="1138" 
d="M641 860h-215v-860h-254v860h-147v205h145v131q0 168 71 236t230 67h168v-205h-70q-79 0 -111 -26t-32 -88v-115h215v-205zM1008 1262h-254v237h254v-237zM1008 1065v-1065h-254v1065h254z" />
    <glyph glyph-name="fl" unicode="fl" horiz-adv-x="1138" 
d="M641 860h-215v-860h-254v860h-147v205h145v131q0 168 71 236t230 67h168v-205h-70q-79 0 -111 -26t-32 -88v-115h215v-205zM1008 0h-254v1479h254v-1479z" />
    <glyph glyph-name=".notdef" horiz-adv-x="1024" 
d="M102 1239v-1044l349 522zM164 102h696l-348 523zM573 717l349 -522v1044zM512 809l348 522h-696zM0 0v1434h1024v-1434h-1024z" />
    <glyph glyph-name=".null" horiz-adv-x="0" 
 />
    <glyph glyph-name="nonmarkingreturn" horiz-adv-x="681" 
 />
    <glyph glyph-name="space" unicode=" " horiz-adv-x="624" 
 />
    <glyph glyph-name="exclam" unicode="!" horiz-adv-x="681" 
d="M481 0h-282v291h282v-291zM492 1479l-54 -979h-196l-54 979h304z" />
    <glyph glyph-name="quotedbl" unicode="&#x22;" horiz-adv-x="681" 
d="M49 922v557h230v-557h-230zM403 922v557h230v-557h-230z" />
    <glyph glyph-name="numbersign" unicode="#" 
d="M741 862h-196l-35 -246h197zM1065 616v-184h-191l-57 -432h-192l55 432h-197l-57 -432h-193l56 432h-164v184h190l35 246h-164v185h189l57 432h193l-56 -432h197l57 432h193l-55 -432h163v-185h-188l-35 -246h164z" />
    <glyph glyph-name="dollar" unicode="$" 
d="M100 1061q0 197 127 305t312 113v147h151v-147q219 -6 420 -203l-160 -158q-72 70 -129 108t-131 48v-410q229 -68 341 -176t112 -296t-126 -284t-327 -108v-246h-151v246q-293 31 -453 244l176 151q101 -151 277 -190v444q-191 43 -315 147t-124 265zM330 1079
q0 -69 47 -105t162 -69v369q-209 -14 -209 -195zM690 205q94 0 159 43t64 143q0 154 -223 213v-399z" />
    <glyph glyph-name="percent" unicode="%" horiz-adv-x="1820" 
d="M403 -20l850 1519h174l-849 -1519h-175zM1382 537q-68 -1 -118 -51t-50 -118t50 -117q50 -50 118 -50t118 50t50 118t-50 118t-118 50zM1382 737q154 -1 262 -109t108 -260t-108 -260t-262 -108t-262 109t-106 261q0 152 107 259q107 108 261 108zM438 1278
q-68 0 -118 -50t-50 -118t50 -118t118 -50t118 50t50 118t-50 118t-118 50zM438 1479q154 0 262 -109q108 -108 107 -260q0 -152 -108 -260q-107 -108 -261 -109q-154 0 -262 109q-108 108 -106 260q0 152 107 260t261 109z" />
    <glyph glyph-name="ampersand" unicode="&#x26;" horiz-adv-x="1366" 
d="M348 422q0 -82 66 -143t166 -61t182 81q-170 133 -295 317q-43 -37 -63 -56t-38 -56t-18 -82zM1298 -20q-110 0 -178 28t-190 127q-150 -155 -371 -155t-349 108t-128 322q0 127 63 218t183 171q-66 96 -96 175t-29 181q0 156 105 250t261 94t258 -95q103 -95 103 -234
t-94 -242q-51 -55 -85 -85t-106 -87q131 -178 260 -293q84 120 139 278l226 -61q-88 -231 -180 -363q109 -98 208 -100v-237zM440 1174q0 -121 78 -240q174 129 174 246q0 66 -34 108t-87 43q-53 -1 -92 -43t-39 -114z" />
    <glyph glyph-name="quotesingle" unicode="'" horiz-adv-x="454" 
d="M113 922v557h229v-557h-229z" />
    <glyph glyph-name="parenleft" unicode="(" horiz-adv-x="681" 
d="M332 664q0 -452 297 -836h-248q-147 228 -213 410t-66 426t66 426t213 409h248q-297 -383 -297 -835z" />
    <glyph glyph-name="parenright" unicode=")" horiz-adv-x="681" 
d="M350 664q0 453 -297 835h248q147 -227 213 -409t66 -426t-66 -426t-213 -410h-248q297 383 297 836z" />
    <glyph glyph-name="asterisk" unicode="*" horiz-adv-x="1024" 
d="M461 1171l8 11l-63 297h202l-53 -299l10 -11l262 152l62 -184l-299 -47l219 -218l-152 -118l-137 272l-14 -2l-131 -268l-154 108l217 215l-4 13l-299 36l53 183z" />
    <glyph glyph-name="plus" unicode="+" horiz-adv-x="1228" 
d="M725 643h422v-221h-422v-422h-221v422h-422v221h422v422h221v-422z" />
    <glyph glyph-name="comma" unicode="," horiz-adv-x="624" 
d="M170 0v291h283v-291l-131 -307h-134l105 307h-123z" />
    <glyph glyph-name="hyphen" unicode="-" horiz-adv-x="681" 
d="M592 422h-502v221h502v-221z" />
    <glyph glyph-name="period" unicode="." horiz-adv-x="624" 
d="M453 0h-283v291h283v-291z" />
    <glyph glyph-name="slash" unicode="/" horiz-adv-x="569" 
d="M627 1499l-461 -1519h-223l460 1519h224z" />
    <glyph glyph-name="zero" unicode="0" 
d="M352 739q0 -539 273 -538q272 1 272 539q-1 538 -273 538t-272 -539zM86 739q0 329 127 545q127 215 412 215q403 0 509 -462q30 -134 30 -298q-1 -335 -123 -537q-61 -106 -167 -164t-249 -58q-406 0 -509 461q-30 134 -30 298z" />
    <glyph glyph-name="one" unicode="1" 
d="M1022 0h-723v205h229v1020h-262v172q227 10 322 102h207v-1294h227v-205z" />
    <glyph glyph-name="two" unicode="2" 
d="M1110 0h-995v244q21 109 276 315q104 84 208 170q245 205 245 344q0 97 -58 151t-163 54q-104 0 -171 -64t-94 -170l-237 52q23 172 167 288t345 115q201 0 339 -114t138 -296t-90 -307q-90 -126 -263 -264q-235 -186 -347 -289h700v-229z" />
    <glyph glyph-name="three" unicode="3" 
d="M397 674v221q188 0 293 43q104 43 105 164q1 80 -59 128t-154 48q-143 0 -283 -148l-176 160q197 209 450 209q211 0 349 -100t139 -281q0 -223 -223 -319q132 -41 202 -139t70 -236q0 -217 -154 -331t-370 -113q-162 0 -305 74t-218 212l213 121q111 -186 312 -186
q104 0 180 60t76 163q0 70 -31 119t-73 73q-79 46 -226 56q-47 2 -117 2z" />
    <glyph glyph-name="four" unicode="4" 
d="M49 340v260l631 879h289v-934h209v-205h-209v-340h-254v340h-666zM715 545v659h-4l-457 -659h461z" />
    <glyph glyph-name="five" unicode="5" 
d="M1034 1479v-230h-598l-20 -336q82 86 276 86q194 -1 318 -151q125 -150 125 -340q1 -246 -141 -387t-404 -141q-170 0 -293 74t-186 202l221 115q34 -76 108 -121t154 -47q137 -4 206 79q68 83 68 213q0 131 -68 207t-184 76q-154 0 -223 -127l-213 41l56 787h798z" />
    <glyph glyph-name="six" unicode="6" 
d="M726 1278q-140 0 -248 -131t-111 -320q135 119 331 119t325 -134q128 -134 128 -353t-145 -349t-381 -130t-380 172t-145 499q0 391 168 619t467 229q189 1 367 -110l-117 -213q-119 102 -259 102zM633 725q-178 0 -266 -168q0 -176 83 -266t195 -90q112 1 178 71t66 190
t-67 192t-189 71z" />
    <glyph glyph-name="seven" unicode="7" 
d="M119 1249v230h1014v-154l-609 -1325h-293l598 1249h-710z" />
    <glyph glyph-name="eight" unicode="8" 
d="M852 1126q0 168 -227 168t-228 -168q0 -92 80 -158q81 -66 145 -67q64 0 147 75t83 150zM625 184q137 0 210 58t73 153q0 93 -120 183q-119 90 -182 90q-64 0 -164 -84t-100 -184t73 -158t210 -58zM1118 1130q0 -124 -61 -202t-180 -142q297 -129 297 -405
q0 -178 -156 -290q-156 -111 -394 -111t-393 112q-156 112 -155 289q0 276 297 405q-119 62 -180 142t-62 202q0 168 134 268q133 100 359 101q226 -1 360 -101t134 -268z" />
    <glyph glyph-name="nine" unicode="9" 
d="M502 201q140 0 248 131t110 319q-135 -119 -332 -119q-196 0 -324 134t-128 354q0 219 145 349t381 130t380 -172t144 -500q0 -391 -168 -619t-466 -228q-189 -1 -367 110l117 213q120 -102 260 -102zM582 1278q-112 0 -178 -70t-66 -191q0 -120 66 -192t190 -71
q178 0 266 168q0 176 -83 266t-195 90z" />
    <glyph glyph-name="colon" unicode=":" horiz-adv-x="624" 
d="M453 0h-283v291h283v-291zM453 614h-283v291h283v-291z" />
    <glyph glyph-name="semicolon" unicode=";" horiz-adv-x="624" 
d="M453 614h-283v291h283v-291zM170 0v291h283v-291l-131 -307h-134l105 307h-123z" />
    <glyph glyph-name="less" unicode="&#x3c;" horiz-adv-x="1228" 
d="M1147 211v-227l-1065 454v189l1065 454v-227l-762 -322z" />
    <glyph glyph-name="equal" unicode="=" horiz-adv-x="1228" 
d="M1147 418v-221h-1065v221h1065zM1147 868v-221h-1065v221h1065z" />
    <glyph glyph-name="greater" unicode="&#x3e;" horiz-adv-x="1228" 
d="M82 -16v227l762 321l-762 322v227l1065 -454v-189z" />
    <glyph glyph-name="question" unicode="?" horiz-adv-x="909" 
d="M551 0h-283v291h283v-291zM518 498h-225v112q1 125 117 289t130 210t15 83q0 37 -39 70q-38 32 -98 32t-106 -54t-56 -126l-236 66q39 152 149 236q111 84 271 83q160 0 266 -87t107 -241q0 -117 -74 -221q-27 -37 -77 -96t-71 -87t-47 -84t-26 -110v-75z" />
    <glyph glyph-name="at" unicode="@" horiz-adv-x="1638" 
d="M1145 537q0 -45 29 -45q76 0 138 89t62 242q0 240 -146 372t-388 132t-393 -166t-151 -428t163 -422q161 -159 403 -159t410 143h184q-217 -315 -594 -315q-322 0 -546 216t-224 540t222 543q222 220 538 220q276 0 484 -173t208 -445q0 -127 -41 -233t-101 -168
q-60 -64 -133 -108q-131 -79 -231 -79q-46 0 -76 28t-32 76l-4 2q-92 -106 -210 -106q-118 -1 -215 107t-98 251q0 193 116 338t285 145t251 -126l22 102h180l-100 -500q-12 -61 -12 -73zM627 694q0 -184 164 -184q83 0 145 75q61 75 61 160t-44 132q-45 47 -125 47
t-140 -71t-61 -159z" />
    <glyph glyph-name="A" unicode="A" 
d="M27 0l426 1481h352l420 -1481h-281l-82 319h-467l-88 -319h-280zM631 1196l-174 -643h344l-166 643h-4z" />
    <glyph glyph-name="B" unicode="B" horiz-adv-x="1366" 
d="M442 1249v-360h283q98 0 151 50q52 50 52 130t-52 130t-151 50h-283zM442 659v-430h283q236 0 236 215t-236 215h-283zM160 0v1479h549q479 0 501 -363q0 -248 -225 -336q147 -59 203 -142t55 -256q0 -174 -133 -278t-405 -104h-545z" />
    <glyph glyph-name="C" unicode="C" 
d="M647 1262q-143 0 -223 -134t-80 -389q-6 -522 311 -522q98 0 163 46t126 173l262 -69q-133 -387 -551 -387q-283 0 -439 198t-155 561q0 362 156 561t438 199q414 0 516 -389l-256 -61q-70 213 -268 213z" />
    <glyph glyph-name="D" unicode="D" horiz-adv-x="1366" 
d="M442 1241v-1003h189q399 0 399 502t-399 501h-189zM160 0v1479h489q307 1 485 -181t177 -559q0 -377 -177 -558t-485 -181h-489z" />
    <glyph glyph-name="E" unicode="E" 
d="M1174 0h-1002v1479h979v-238h-696v-352h506v-238h-506v-413h719v-238z" />
    <glyph glyph-name="F" unicode="F" horiz-adv-x="1138" 
d="M442 0h-282v1479h942v-238h-660v-352h494v-238h-494v-651z" />
    <glyph glyph-name="G" unicode="G" horiz-adv-x="1366" 
d="M344 733q0 -244 83 -380t225 -136t227 82q84 82 88 211h-281v238h553v-748h-205v152q-86 -96 -175 -134t-210 -38q-289 0 -439 204t-149 533q0 400 195 615q68 75 176 121t246 46q211 -1 346 -103t190 -274l-262 -69q-52 113 -120 161t-177 48q-155 0 -233 -142t-78 -387
z" />
    <glyph glyph-name="H" unicode="H" horiz-adv-x="1478" 
d="M455 0h-283v1479h283v-590h569v590h283v-1479h-283v635h-569v-635z" />
    <glyph glyph-name="I" unicode="I" horiz-adv-x="681" 
d="M481 0h-282v1479h282v-1479z" />
    <glyph glyph-name="J" unicode="J" horiz-adv-x="909" 
d="M338 217q117 0 117 176v1086h282v-1080q0 -419 -409 -419q-207 0 -338 198l194 146q37 -59 71 -83t83 -24z" />
    <glyph glyph-name="K" unicode="K" horiz-adv-x="1366" 
d="M442 0h-282v1479h282v-658l494 658h326l-420 -555l487 -924h-313l-367 702l-207 -258v-444z" />
    <glyph glyph-name="L" unicode="L" horiz-adv-x="1138" 
d="M1085 0h-925v1479h282v-1241h643v-238z" />
    <glyph glyph-name="M" unicode="M" horiz-adv-x="1705" 
d="M412 0h-246v1479h397l285 -1033h4l287 1033h401v-1479h-246v1163h-4l-332 -1163h-215l-327 1163h-4v-1163z" />
    <glyph glyph-name="N" unicode="N" horiz-adv-x="1478" 
d="M432 0h-266v1479h295l581 -1008h5v1008h266v-1479h-273l-604 1053h-4v-1053z" />
    <glyph glyph-name="O" unicode="O" horiz-adv-x="1366" 
d="M1303 739q0 -365 -160 -563t-461 -196q-301 0 -461 198t-160 562t160 562t461 198t461 -198t160 -563zM1020 739q0 522 -338 523q-338 0 -338 -523q-6 -522 338 -522q338 0 338 522z" />
    <glyph glyph-name="P" unicode="P" 
d="M422 1249v-422h225q152 -1 212 53t61 158q0 104 -60 158t-213 53h-225zM422 0h-283v1479h541q248 0 385 -109t137 -332q0 -224 -137 -332t-385 -108h-258v-598z" />
    <glyph glyph-name="Q" unicode="Q" horiz-adv-x="1366" 
d="M1341 -111q-135 0 -191 29t-155 135q-129 -74 -313 -73q-301 0 -461 198t-160 562t160 562t461 198t461 -198t160 -554t-148 -553q80 -66 186 -68v-238zM1020 739q0 522 -338 523q-338 0 -338 -523q-6 -522 338 -522q104 0 176 49q-74 109 -176 129v252q188 -18 303 -188
q35 104 35 280z" />
    <glyph glyph-name="R" unicode="R" horiz-adv-x="1366" 
d="M442 1249v-418h209q160 1 225 51t64 158q0 209 -240 209h-258zM442 0h-282v1479h590q240 0 356 -121t117 -318q2 -139 -68 -241t-203 -140l326 -659h-313l-279 602h-244v-602z" />
    <glyph glyph-name="S" unicode="S" 
d="M594 1278q-96 0 -154 -41t-57 -117q0 -76 79 -127q78 -51 190 -92t224 -92t190 -146t79 -229q0 -225 -134 -340t-384 -114q-184 0 -338 95t-215 255l233 102q55 -113 130 -172t192 -59q250 0 250 196q-1 68 -57 121t-141 86q-213 83 -367 165q-85 46 -141 128t-56 188
q0 191 138 303q139 112 329 112t328 -88q138 -87 204 -247l-258 -80q-72 193 -264 193z" />
    <glyph glyph-name="T" unicode="T" horiz-adv-x="1138" 
d="M41 1481h1057v-238h-387v-1243h-283v1243h-387v238z" />
    <glyph glyph-name="U" unicode="U" horiz-adv-x="1478" 
d="M1024 541v938h283v-926q0 -313 -163 -444t-405 -130q-241 1 -404 131t-163 443v926h283v-938q1 -176 69 -250t215 -74t216 74t69 250z" />
    <glyph glyph-name="V" unicode="V" horiz-adv-x="1138" 
d="M412 0l-392 1479h279l262 -1090h4l275 1090h278l-391 -1479h-315z" />
    <glyph glyph-name="W" unicode="W" horiz-adv-x="1705" 
d="M350 0l-309 1479h264l187 -998h4l211 998h290l195 -998h4l203 998h264l-307 -1479h-287l-215 1053h-4l-213 -1053h-287z" />
    <glyph glyph-name="X" unicode="X" horiz-adv-x="1138" 
d="M416 758l-375 721h307l221 -457l222 457h307l-375 -721l399 -758h-307l-246 502l-245 -502h-308z" />
    <glyph glyph-name="Y" unicode="Y" horiz-adv-x="1138" 
d="M711 0h-283v590l-408 889h295l254 -586l254 586h295l-407 -889v-590z" />
    <glyph glyph-name="Z" unicode="Z" horiz-adv-x="1138" 
d="M1085 238v-238h-1052v240l690 1001h-643v238h999v-226l-714 -1015h720z" />
    <glyph glyph-name="bracketleft" unicode="[" horiz-adv-x="681" 
d="M588 -152h-482v1631h478v-123h-256v-1385h260v-123z" />
    <glyph glyph-name="backslash" unicode="\" horiz-adv-x="569" 
d="M403 -20l-460 1519h223l461 -1519h-224z" />
    <glyph glyph-name="bracketright" unicode="]" horiz-adv-x="681" 
d="M575 -152h-481v123h260v1385h-256v123h477v-1631z" />
    <glyph glyph-name="asciicircum" unicode="^" horiz-adv-x="1228" 
d="M367 711h-224l369 768h205l368 -768h-225l-246 538z" />
    <glyph glyph-name="underscore" unicode="_" horiz-adv-x="1024" 
d="M1024 -256h-1024v102h1024v-102z" />
    <glyph glyph-name="grave" unicode="`" horiz-adv-x="569" 
d="M-57 1499h315l193 -299h-209z" />
    <glyph glyph-name="a" unicode="a" horiz-adv-x="1024" 
d="M414 168q100 0 233 113v229q-226 -45 -282 -86q-76 -52 -75 -121t35 -102t89 -33zM37 262q0 180 148 280t462 138v90q0 59 -43 93t-112 34q-137 0 -234 -131l-164 125q49 84 165 141t233 53q219 -4 314 -99t95 -331v-501q1 -95 21 -154h-248l-17 92q-166 -112 -317 -112
t-227 82t-76 200z" />
    <glyph glyph-name="b" unicode="b" horiz-adv-x="1138" 
d="M819 532q0 168 -61 258t-168 91q-107 0 -205 -90v-512q8 -6 37 -31t43 -34q44 -28 117 -30q115 0 176 90t61 258zM131 0v1479h254v-512h4q37 49 115 84t143 34q197 -1 311 -157t115 -390q-1 -234 -111 -397q-110 -162 -315 -161q-150 0 -289 135l-28 -115h-199z" />
    <glyph glyph-name="c" unicode="c" horiz-adv-x="1024" 
d="M512 881q-209 0 -209 -349q0 -178 52 -263t165 -85q133 0 225 170l193 -108q-76 -140 -177 -204t-249 -62q-215 0 -339 150t-124 402q0 254 124 404t339 149q152 1 264 -75t156 -209l-211 -82q-37 80 -81 121t-128 41z" />
    <glyph glyph-name="d" unicode="d" horiz-adv-x="1138" 
d="M549 881q-107 0 -168 -90q-61 -91 -61 -259t60 -258q62 -90 177 -90q70 0 117 30q14 9 43 34t37 31v512q-98 90 -205 90zM1008 1479v-1479h-215l-13 115q-139 -135 -288 -135q-205 0 -316 162q-110 162 -110 396t114 391q115 157 312 156q66 -1 144 -35t114 -83h4v512
h254z" />
    <glyph glyph-name="e" unicode="e" horiz-adv-x="1024" 
d="M946 492h-643q1 -158 63 -233t151 -75t138 31t107 96l184 -114q-141 -217 -446 -217q-207 0 -329 150t-122 402q0 254 124 404t332 150q209 0 325 -143q116 -144 116 -347v-104zM508 897q-92 0 -148 -61t-57 -172h410q-1 111 -57 172t-148 61z" />
    <glyph glyph-name="f" unicode="f" horiz-adv-x="681" 
d="M641 860h-215v-860h-254v860h-147v205h145v131q0 168 71 236t230 67h168v-205h-70q-79 0 -111 -26t-32 -88v-115h215v-205z" />
    <glyph glyph-name="g" unicode="g" horiz-adv-x="1024" 
d="M293 291q0 -76 179 -76t339 -43q78 -20 130 -82t52 -164q0 -127 -128 -221t-357 -94q-229 -1 -356 65t-127 189q0 94 58 145t134 51v5q-6 4 -43 22t-56 32q-57 44 -58 115q0 71 58 127t107 70q-157 129 -157 282q0 152 112 262t307 109q154 0 263 -94q75 100 249 94v-172
q-125 0 -163 -24q57 -78 57 -189q0 -156 -103 -250t-298 -94q-100 0 -150 -12t-49 -53zM659 721q0 74 -51 125t-127 51t-128 -51t-52 -125t52 -125t128 -51t127 51t51 125zM760 -102q0 65 -130 101q-76 21 -182 21q-104 0 -147 -40t-43 -92q0 -111 283 -109q109 0 164 40
t55 79z" />
    <glyph glyph-name="h" unicode="h" horiz-adv-x="1138" 
d="M385 0h-254v1479h254v-529q159 135 311 135t232 -94t80 -262v-729h-254v692q0 104 -32 146t-99 43q-139 0 -238 -113v-768z" />
    <glyph glyph-name="i" unicode="i" horiz-adv-x="569" 
d="M412 1262h-254v237h254v-237zM412 1065v-1065h-254v1065h254z" />
    <glyph glyph-name="j" unicode="j" horiz-adv-x="569" 
d="M438 1262h-254v237h254v-237zM90 -172q47 0 71 29t23 102v1106h254v-1147q0 -162 -70 -234t-229 -73q-72 0 -133 16v207q80 -6 84 -6z" />
    <glyph glyph-name="k" unicode="k" horiz-adv-x="1024" 
d="M385 0h-254v1479h254v-826h8l314 412h290l-313 -397l336 -668h-270l-236 477l-129 -149v-328z" />
    <glyph glyph-name="l" unicode="l" horiz-adv-x="569" 
d="M412 0h-254v1479h254v-1479z" />
    <glyph glyph-name="m" unicode="m" horiz-adv-x="1705" 
d="M385 0h-254v1065h231v-115q78 72 148 104t164 32t165 -42q71 -41 105 -114q156 156 367 155q102 1 182 -73t80 -246v-766h-254v743q0 131 -127 138q-90 0 -213 -115v-766h-254v743q0 131 -127 138q-90 0 -213 -115v-766z" />
    <glyph glyph-name="n" unicode="n" horiz-adv-x="1138" 
d="M385 0h-254v1065h234v-115q195 135 339 135t224 -94t80 -262v-729h-254v692q0 104 -32 146t-99 43q-139 0 -238 -113v-768z" />
    <glyph glyph-name="o" unicode="o" horiz-adv-x="1024" 
d="M49 532q0 254 124 404t339 150t339 -150t124 -404t-124 -404t-339 -148q-215 0 -339 149t-124 403zM721 532q0 348 -209 349q-209 -1 -209 -349t209 -348t209 348z" />
    <glyph glyph-name="p" unicode="p" horiz-adv-x="1138" 
d="M590 184q107 0 168 90t61 258t-61 258t-176 91q-70 0 -117 -30q-14 -9 -43 -34t-37 -31v-512q98 -90 205 -90zM131 -389v1454h244v-98q123 119 272 118q205 1 316 -161t111 -396t-116 -392q-115 -157 -311 -156q-65 0 -143 34t-115 84h-4v-487h-254z" />
    <glyph glyph-name="q" unicode="q" horiz-adv-x="1138" 
d="M549 184q107 0 205 90v512q-8 6 -37 31t-43 34q-44 28 -117 30q-115 0 -176 -90q-61 -91 -61 -259t60 -258q62 -90 169 -90zM1008 1065v-1454h-254v487h-4q-37 -49 -115 -84t-143 -34q-197 0 -312 156q-114 156 -114 392q0 234 110 396q111 162 316 161q150 0 288 -135
l29 115h199z" />
    <glyph glyph-name="r" unicode="r" horiz-adv-x="681" 
d="M369 0h-254v1065h233v-182h4q47 98 118 149t181 53v-268q-12 2 -45 2q-84 -1 -161 -71t-76 -101v-647z" />
    <glyph glyph-name="s" unicode="s" horiz-adv-x="909" 
d="M451 897q-143 0 -144 -104q0 -49 55 -83q56 -34 134 -60t156 -60t132 -109q55 -74 56 -182q0 -160 -108 -240t-283 -79q-258 0 -404 215l170 127q111 -154 248 -154q67 0 109 34t42 85t-55 86t-133 61t-156 62q-78 34 -133 106t-55 174q0 143 103 226t249 83
q238 1 375 -161l-160 -140q-104 113 -198 113z" />
    <glyph glyph-name="t" unicode="t" horiz-adv-x="681" 
d="M25 1065h147v352h254v-352h209v-205h-209v-602q0 -41 22 -57q22 -17 58 -17q37 0 129 21v-209q-139 -16 -201 -16q-262 0 -262 245v635h-147v205z" />
    <glyph glyph-name="u" unicode="u" horiz-adv-x="1138" 
d="M754 1065h254v-1065h-234v115q-196 -135 -340 -135t-224 94t-79 262v729h254v-692q0 -105 32 -147t99 -42q139 0 238 113v768z" />
    <glyph glyph-name="v" unicode="v" horiz-adv-x="909" 
d="M317 0l-297 1065h254l177 -721h4l180 721h254l-305 -1065h-267z" />
    <glyph glyph-name="w" unicode="w" horiz-adv-x="1366" 
d="M295 0l-275 1065h242l146 -664h4l153 664h236l147 -664h4l152 664h242l-275 -1065h-229l-158 664h-4l-156 -664h-229z" />
    <glyph glyph-name="x" unicode="x" horiz-adv-x="909" 
d="M8 0l314 553l-302 512h281l150 -295l151 295h275l-299 -512l323 -553h-270l-178 332l-172 -332h-273z" />
    <glyph glyph-name="y" unicode="y" horiz-adv-x="909" 
d="M127 -180q125 0 168 84q41 86 41 120t-14 76l-304 965h256l177 -655h4l182 655h254l-336 -1067q-84 -227 -169 -307t-243 -80q-62 0 -123 8v209q39 -8 107 -8z" />
    <glyph glyph-name="z" unicode="z" horiz-adv-x="909" 
d="M80 860v205h788v-180l-512 -680h516v-205h-835v180l514 680h-471z" />
    <glyph glyph-name="braceleft" unicode="{" horiz-adv-x="681" 
d="M16 602v123q63 0 104 37q40 37 40 96v397q0 121 71 183q72 61 191 61h145v-123h-100q-41 0 -64 -30t-22 -72v-389q0 -99 -36 -149t-120 -70v-4q84 -20 120 -70t36 -150v-389q1 -43 23 -73t63 -29h100v-123h-145q-119 0 -191 61t-71 183v397q0 59 -40 96q-41 37 -104 37z
" />
    <glyph glyph-name="bar" unicode="|" horiz-adv-x="454" 
d="M117 -20v1519h221v-1519h-221z" />
    <glyph glyph-name="braceright" unicode="}" horiz-adv-x="681" 
d="M666 725v-123q-64 0 -104 -37t-40 -96v-397q0 -121 -71 -183q-72 -61 -191 -61h-145v123h100q41 0 64 30t22 72v389q0 100 36 150t120 70v4q-84 20 -120 69t-36 150v389q0 43 -22 73q-23 30 -64 29h-100v123h145q119 0 191 -61t71 -183v-397q0 -59 40 -96t104 -37z" />
    <glyph glyph-name="asciitilde" unicode="~" horiz-adv-x="1228" 
d="M939 384q-54 -30 -116 -30t-104 20q-43 20 -85 42q-42 23 -56 30q-98 49 -185 50q-111 0 -178 -148l-72 184q88 176 254 177q82 0 236 -70t197 -70q74 0 134 75q19 26 50 73l71 -185q-39 -55 -65 -87q-26 -31 -81 -61z" />
    <glyph glyph-name="uni00A0" unicode="&#xa0;" horiz-adv-x="624" 
 />
    <glyph glyph-name="exclamdown" unicode="&#xa1;" horiz-adv-x="681" 
d="M201 1110h282v-291h-282v291zM190 -369l54 979h196l54 -979h-304z" />
    <glyph glyph-name="cent" unicode="&#xa2;" 
d="M168 532q0 254 124 404t339 149q70 0 135 -16l78 217h119l-95 -262q131 -72 183 -223l-211 -82q-20 47 -49 88l-220 -612q27 -10 68 -11q133 0 225 170l193 -108q-76 -140 -177 -204t-249 -62q-66 0 -131 16l-92 -252h-119l106 297q-109 63 -168 190t-59 301zM473 258
l221 614q-25 8 -63 9q-109 0 -169 -87q-60 -88 -60 -268t71 -268z" />
    <glyph glyph-name="sterling" unicode="&#xa3;" 
d="M801 643h-238q0 -231 -57 -340q141 -86 229 -86t130 47q29 31 38 115q2 18 6 67h246q0 -202 -88 -334t-256 -132q-137 0 -222 28t-196 98q-115 -133 -287 -126v253q72 5 117 55t60 108q14 58 14 127t-8 120h-195v193h166q-27 145 -27 256q0 199 115 303t327 104t329 -118
t116 -318h-246q-12 107 -57 161t-147 54q-170 0 -170 -213q0 -96 35 -229h266v-193z" />
    <glyph glyph-name="currency" unicode="&#xa4;" 
d="M338 739q0 -131 81 -217t206 -86t205 86t81 217q0 131 -81 217q-82 86 -206 86t-205 -86t-81 -217zM1145 739q0 -160 -94 -297l106 -106l-127 -131l-112 104q-133 -90 -293 -90t-293 90l-113 -104l-127 131l107 106q-94 137 -95 297q0 160 95 297l-107 107l127 131
l113 -105q133 91 293 91t293 -91l112 105l127 -131l-106 -107q94 -137 94 -297z" />
    <glyph glyph-name="yen" unicode="&#xa5;" 
d="M741 414v-414h-233v414h-369v192h361l-70 139h-291v193h195l-277 541h254l314 -635l315 635h254l-276 -541h192v-193h-289l-71 -139h360v-192h-369z" />
    <glyph glyph-name="brokenbar" unicode="&#xa6;" horiz-adv-x="454" 
d="M117 922v577h221v-577h-221zM117 -20v577h221v-577h-221z" />
    <glyph glyph-name="section" unicode="&#xa7;" horiz-adv-x="1024" 
d="M383 897q-35 1 -61 -23t-27 -65t143 -191t201 -149q41 0 66 23q25 22 25 56t-31 74q-29 40 -69 82t-46 48q-135 145 -201 145zM422 1241q0 -41 51 -102t125 -126t148 -135t124 -155q106 -174 -2 -306q-53 -67 -168 -87q104 -111 104 -237q0 -125 -84 -195
q-85 -70 -210 -70q-178 0 -328 174l140 109q76 -115 170 -115q121 0 120 102q0 60 -80 152t-175 172t-175 183t-80 195t62 160q62 66 162 72q-96 115 -96 227q0 113 76 177q77 64 192 64t183 -36q68 -35 148 -129l-139 -112q-92 109 -168 108q-40 -1 -70 -25t-30 -65z" />
    <glyph glyph-name="dieresis" unicode="&#xa8;" horiz-adv-x="569" 
d="M356 1458h246v-237h-246v237zM-33 1458h246v-237h-246v237z" />
    <glyph glyph-name="copyright" unicode="&#xa9;" horiz-adv-x="1638" 
d="M850 303q-190 0 -309 126q-119 127 -119 319t116 316t308 124q141 0 239 -81t123 -230h-176q-27 131 -186 131q-98 0 -152 -69t-55 -187q0 -118 58 -193q58 -76 153 -76q168 1 182 142h185q-25 -152 -127 -237t-240 -85zM1401 739q0 265 -169 439t-414 174
q-244 0 -412 -172t-168 -440t168 -441q168 -172 412 -172t414 173q169 173 169 439zM819 -20q-322 0 -552 208t-230 551q0 344 230 552t552 208t552 -208q231 -208 231 -552q0 -343 -230 -551t-553 -208z" />
    <glyph glyph-name="ordfeminine" unicode="&#xaa;" horiz-adv-x="614" 
d="M256 967q41 1 83 15t58 34v137q-159 -26 -192 -74q-16 -23 -17 -55q0 -57 68 -57zM12 1006q0 109 94 168t291 81v48q0 65 -93 65t-148 -61l-107 75q33 51 108 85t150 32q143 -4 205 -60t61 -198v-301q1 -59 15 -92h-172l-10 57q-92 -69 -194 -69t-151 49t-49 121z" />
    <glyph glyph-name="guillemotleft" unicode="&#xab;" horiz-adv-x="1138" 
d="M541 526l245 334h230l-252 -334l252 -321h-230zM123 526l246 334h229l-252 -334l252 -321h-229z" />
    <glyph glyph-name="logicalnot" unicode="&#xac;" horiz-adv-x="1228" 
d="M926 197v450h-844v221h1065v-671h-221z" />
    <glyph glyph-name="uni00AD" unicode="&#xad;" horiz-adv-x="681" 
d="M592 422h-502v221h502v-221z" />
    <glyph glyph-name="registered" unicode="&#xae;" horiz-adv-x="1638" 
d="M1401 739q0 265 -169 439t-414 174q-244 0 -412 -172t-168 -440t168 -441q168 -172 412 -172t414 173q169 173 169 439zM819 -20q-322 0 -552 208t-230 551q0 344 230 552t552 208t552 -208q231 -208 231 -552q0 -343 -230 -551t-553 -208zM690 1018v-205h158
q135 0 135 111q0 53 -37 73t-106 21h-150zM690 674v-350h-180v833h313q170 0 255 -57t85 -195q0 -209 -229 -221l217 -360h-182l-195 350h-84z" />
    <glyph glyph-name="macron" unicode="&#xaf;" horiz-adv-x="569" 
d="M639 1266h-709v151h709v-151z" />
    <glyph glyph-name="degree" unicode="&#xb0;" horiz-adv-x="819" 
d="M248 1206q0 -68 47 -119t115 -51t114 51t47 119q0 68 -47 119q-46 51 -114 51t-115 -51t-47 -119zM410 913q-123 0 -208 85t-85 208t85 208t208 85q124 0 208 -85t84 -208t-84 -208t-208 -85z" />
    <glyph glyph-name="plusminus" unicode="&#xb1;" horiz-adv-x="1228" 
d="M82 0v221h1065v-221h-1065zM504 795v270h221v-270h422v-222h-422v-272h-221v272h-422v222h422z" />
    <glyph glyph-name="twosuperior" unicode="&#xb2;" horiz-adv-x="749" 
d="M688 598h-647v147q10 45 85 113t159 126q83 58 153 127t70 120q0 121 -135 121t-174 -138l-154 31q17 111 109 183t223 71t221 -69t90 -187q0 -77 -42 -145t-90 -109t-150 -118t-160 -126h442v-147z" />
    <glyph glyph-name="threesuperior" unicode="&#xb3;" horiz-adv-x="749" 
d="M246 1004v135q118 -1 182 23t64 89q0 43 -35 71t-95 30q-98 -2 -184 -88l-115 98q70 76 141 106q70 30 186 31q116 0 199 -59t83 -168q0 -137 -144 -191v-4q176 -47 177 -223q-1 -129 -101 -199q-100 -69 -222 -69t-216 48q-92 48 -141 138l139 72q72 -111 203 -111
q65 0 111 36t46 90q0 101 -99 126q-76 19 -179 19z" />
    <glyph glyph-name="acute" unicode="&#xb4;" horiz-adv-x="569" 
d="M311 1499h316l-299 -299h-209z" />
    <glyph glyph-name="mu" unicode="&#xb5;" horiz-adv-x="1138" 
d="M754 1065h254v-1065h-234v115q-195 -135 -328 -135q-25 0 -61 4v-373h-254v1454h254v-692q0 -105 32 -147t99 -42q139 0 238 113v768z" />
    <glyph glyph-name="paragraph" unicode="&#xb6;" horiz-adv-x="1269" 
d="M45 1110q0 364 430 369h725v-172h-149v-1446h-209v1446h-183v-1446h-208v895q-182 0 -294 95t-112 259z" />
    <glyph glyph-name="periodcentered" unicode="&#xb7;" horiz-adv-x="624" 
d="M156 531q0 65 44 111t108 46t112 -46q47 -46 47 -112q0 -64 -47 -108q-48 -44 -112 -45q-64 0 -108 45t-44 109z" />
    <glyph glyph-name="cedilla" unicode="&#xb8;" horiz-adv-x="569" 
d="M258 -213q-25 0 -86 -12l-41 41l121 184h108l-88 -129q41 10 74 10q76 0 128 -40q52 -41 52 -125t-80 -134t-175 -51q-95 0 -228 53l37 86q92 -32 154 -32t87 18q26 18 25 68q0 63 -88 63z" />
    <glyph glyph-name="onesuperior" unicode="&#xb9;" horiz-adv-x="749" 
d="M623 598h-469v135h137v590h-158v115q145 6 209 61h137v-766h144v-135z" />
    <glyph glyph-name="ordmasculine" unicode="&#xba;" horiz-adv-x="614" 
d="M6 1167q0 154 80 243t220 89t220 -89t80 -243q0 -155 -80 -243t-220 -88t-220 88t-80 243zM430 1167q0 201 -124 201t-124 -201t125 -200q123 -1 123 200z" />
    <glyph glyph-name="guillemotright" unicode="&#xbb;" horiz-adv-x="1138" 
d="M598 539l-246 -334h-229l252 334l-252 321h229zM1016 539l-246 -334h-229l252 334l-252 321h229z" />
    <glyph glyph-name="onequarter" unicode="&#xbc;" horiz-adv-x="1875" 
d="M643 598h-469v135h137v590h-157v115q145 6 208 61h138v-766h143v-135zM432 -20l846 1519h180l-844 -1519h-182zM1085 205v172l394 512h211v-549h129v-135h-129v-205h-189v205h-416zM1501 340v360h-4l-256 -360h260z" />
    <glyph glyph-name="onehalf" unicode="&#xbd;" horiz-adv-x="1875" 
d="M1737 0h-647v147q10 45 85 113t159 126t153 127q70 69 69 120q0 121 -135 121t-174 -138l-153 31q16 111 108 183t223 71q131 0 222 -68q90 -69 90 -188q0 -77 -42 -145t-90 -109q-49 -41 -151 -118t-160 -126h443v-147zM643 598h-469v135h137v590h-157v115q145 6 208 61
h138v-766h143v-135zM399 -20l846 1519h180l-843 -1519h-183z" />
    <glyph glyph-name="threequarters" unicode="&#xbe;" horiz-adv-x="1875" 
d="M1501 340v360h-4l-256 -360h260zM1085 205v172l394 512h211v-549h129v-135h-129v-205h-189v205h-416zM461 -20l846 1519h180l-844 -1519h-182zM279 1004v135q117 -1 181 23t64 89q0 43 -35 71t-94 30q-98 -2 -184 -88l-115 98q70 76 141 106t186 31q115 0 199 -59
t83 -168q0 -137 -144 -191v-4q176 -47 176 -223q0 -129 -100 -199q-100 -69 -223 -69q-254 1 -357 186l140 72q72 -111 202 -111q66 0 112 36t46 90q0 101 -99 126q-76 19 -179 19z" />
    <glyph glyph-name="questiondown" unicode="&#xbf;" horiz-adv-x="909" 
d="M358 1110h283v-291h-283v291zM391 612h225v-112q0 -125 -116 -289t-131 -210t-15 -83t39 -70q39 -32 99 -32t105 54q46 54 56 126l236 -66q-39 -152 -149 -236t-270 -83q-160 0 -267 87q-106 87 -107 241q0 113 74 221q27 37 77 96t71 87q22 28 48 84t25 110v75z" />
    <glyph glyph-name="Agrave" unicode="&#xc0;" 
d="M285 1860h315l193 -299h-209zM27 0l426 1481h352l420 -1481h-281l-82 319h-467l-88 -319h-280zM631 1196l-174 -643h344l-166 643h-4z" />
    <glyph glyph-name="Aacute" unicode="&#xc1;" 
d="M653 1860h316l-299 -299h-209zM27 0l426 1481h352l420 -1481h-281l-82 319h-467l-88 -319h-280zM631 1196l-174 -643h344l-166 643h-4z" />
    <glyph glyph-name="Acircumflex" unicode="&#xc2;" 
d="M498 1860h254l235 -299h-231l-129 168l-131 -168h-230zM27 0l426 1481h352l420 -1481h-281l-82 319h-467l-88 -319h-280zM631 1196l-174 -643h344l-166 643h-4z" />
    <glyph glyph-name="Atilde" unicode="&#xc3;" 
d="M774 1589q-54 0 -158 36t-143 36q-66 0 -94 -84h-127q14 104 74 177t159 73q61 0 161 -38t130 -38q32 -1 58 25t34 63h133q-53 -250 -227 -250zM27 0l426 1481h352l420 -1481h-281l-82 319h-467l-88 -319h-280zM631 1196l-174 -643h344l-166 643h-4z" />
    <glyph glyph-name="Adieresis" unicode="&#xc4;" 
d="M698 1819h246v-238h-246v238zM309 1819h246v-238h-246v238zM27 0l426 1481h352l420 -1481h-281l-82 319h-467l-88 -319h-280zM631 1196l-174 -643h344l-166 643h-4z" />
    <glyph glyph-name="Aring" unicode="&#xc5;" 
d="M516 1780q0 -47 33 -79t78 -32t78 32t32 79q0 47 -32 79q-33 31 -78 31t-78 -32t-33 -78zM406 1780q0 92 64 156t157 65q93 0 157 -65q64 -64 64 -156t-65 -157t-157 -65t-156 65t-64 157zM27 0l426 1481h352l420 -1481h-281l-82 319h-467l-88 -319h-280zM631 1196
l-174 -643h344l-166 643h-4z" />
    <glyph glyph-name="AE" unicode="&#xc6;" horiz-adv-x="1933" 
d="M930 584v690h-4l-330 -690h334zM1833 1479v-238h-621v-352h430v-238h-430v-413h643v-238h-925v346h-451l-164 -346h-301l744 1479h1075z" />
    <glyph glyph-name="Ccedilla" unicode="&#xc7;" 
d="M647 1262q-143 0 -222 -134t-81 -389q-4 -522 311 -522q98 0 163 46t126 173l262 -69q-123 -360 -497 -385l-76 -111q41 10 74 10q76 0 128 -40q52 -41 52 -125t-80 -134t-175 -51q-95 0 -229 53l37 86q92 -32 154 -32t87 18q26 18 26 68q0 63 -89 63q-25 0 -86 -12
l-40 41l108 166q-258 20 -398 217t-140 549t155 552q156 199 438 199q414 0 516 -389l-256 -61q-70 213 -268 213z" />
    <glyph glyph-name="Egrave" unicode="&#xc8;" 
d="M324 1860h315l192 -299h-208zM1174 0h-1002v1479h979v-238h-696v-352h506v-238h-506v-413h719v-238z" />
    <glyph glyph-name="Eacute" unicode="&#xc9;" 
d="M692 1860h316l-299 -299h-209zM1174 0h-1002v1479h979v-238h-696v-352h506v-238h-506v-413h719v-238z" />
    <glyph glyph-name="Ecircumflex" unicode="&#xca;" 
d="M537 1860h254l235 -299h-231l-129 168l-131 -168h-230zM1174 0h-1002v1479h979v-238h-696v-352h506v-238h-506v-413h719v-238z" />
    <glyph glyph-name="Edieresis" unicode="&#xcb;" 
d="M737 1819h246v-238h-246v238zM348 1819h246v-238h-246v238zM1174 0h-1002v1479h979v-238h-696v-352h506v-238h-506v-413h719v-238z" />
    <glyph glyph-name="Igrave" unicode="&#xcc;" horiz-adv-x="681" 
d="M-6 1860h315l193 -299h-209zM481 0h-282v1479h282v-1479z" />
    <glyph glyph-name="Iacute" unicode="&#xcd;" horiz-adv-x="681" 
d="M362 1860h316l-299 -299h-209zM481 0h-282v1479h282v-1479z" />
    <glyph glyph-name="Icircumflex" unicode="&#xce;" horiz-adv-x="681" 
d="M207 1860h254l235 -299h-231l-129 168l-131 -168h-230zM481 0h-282v1479h282v-1479z" />
    <glyph glyph-name="Idieresis" unicode="&#xcf;" horiz-adv-x="681" 
d="M408 1819h245v-238h-245v238zM18 1819h246v-238h-246v238zM481 0h-282v1479h282v-1479z" />
    <glyph glyph-name="Eth" unicode="&#xd0;" horiz-adv-x="1366" 
d="M442 1241v-352h306v-254h-306v-397h189q399 0 399 502t-399 501h-189zM160 0v635h-137v254h137v590h489q307 1 485 -181t177 -559q0 -377 -177 -558t-485 -181h-489z" />
    <glyph glyph-name="Ntilde" unicode="&#xd1;" horiz-adv-x="1478" 
d="M887 1589q-53 0 -157 36t-144 36q-66 0 -94 -84h-127q14 104 74 177t159 73q60 0 160 -38t131 -38q31 -1 57 25t35 63h133q-53 -250 -227 -250zM432 0h-266v1479h295l581 -1008h5v1008h266v-1479h-273l-604 1053h-4v-1053z" />
    <glyph glyph-name="Ograve" unicode="&#xd2;" horiz-adv-x="1366" 
d="M342 1860h315l193 -299h-209zM1303 739q0 -365 -160 -563t-461 -196q-301 0 -461 198t-160 562t160 562t461 198t461 -198t160 -563zM1020 739q0 522 -338 523q-338 0 -338 -523q-6 -522 338 -522q338 0 338 522z" />
    <glyph glyph-name="Oacute" unicode="&#xd3;" horiz-adv-x="1366" 
d="M711 1860h315l-299 -299h-209zM1303 739q0 -365 -160 -563t-461 -196q-301 0 -461 198t-160 562t160 562t461 198t461 -198t160 -563zM1020 739q0 522 -338 523q-338 0 -338 -523q-6 -522 338 -522q338 0 338 522z" />
    <glyph glyph-name="Ocircumflex" unicode="&#xd4;" horiz-adv-x="1366" 
d="M555 1860h254l235 -299h-231l-129 168l-131 -168h-229zM1303 739q0 -365 -160 -563t-461 -196q-301 0 -461 198t-160 562t160 562t461 198t461 -198t160 -563zM1020 739q0 522 -338 523q-338 0 -338 -523q-6 -522 338 -522q338 0 338 522z" />
    <glyph glyph-name="Otilde" unicode="&#xd5;" horiz-adv-x="1366" 
d="M831 1589q-53 0 -157 36t-144 36q-66 0 -94 -84h-127q15 104 75 177t159 73q61 0 160 -38t130 -38q31 -1 58 25t35 63h133q-53 -250 -228 -250zM1303 739q0 -365 -160 -563t-461 -196q-301 0 -461 198t-160 562t160 562t461 198t461 -198t160 -563zM1020 739
q0 522 -338 523q-338 0 -338 -523q-6 -522 338 -522q338 0 338 522z" />
    <glyph glyph-name="Odieresis" unicode="&#xd6;" horiz-adv-x="1366" 
d="M756 1819h245v-238h-245v238zM367 1819h245v-238h-245v238zM1303 739q0 -365 -160 -563t-461 -196q-301 0 -461 198t-160 562t160 562t461 198t461 -198t160 -563zM1020 739q0 522 -338 523q-338 0 -338 -523q-6 -522 338 -522q338 0 338 522z" />
    <glyph glyph-name="multiply" unicode="&#xd7;" horiz-adv-x="1228" 
d="M614 377l-374 -377l-158 160l375 375l-375 374l158 156l374 -373l375 373l158 -156l-375 -374l375 -375l-158 -160z" />
    <glyph glyph-name="Oslash" unicode="&#xd8;" horiz-adv-x="1366" 
d="M1343 1561l-186 -279q145 -196 145 -552t-159 -554q-160 -198 -461 -196q-203 0 -336 88l-135 -203h-234l226 338q-141 195 -141 548t159 551q160 198 461 197q195 0 330 -86l96 148h235zM344 739q0 -178 31 -276l495 741q-76 57 -188 58q-338 0 -338 -523zM1020 739
q0 172 -37 283l-496 -743q76 -61 195 -62q338 0 338 522z" />
    <glyph glyph-name="Ugrave" unicode="&#xd9;" horiz-adv-x="1478" 
d="M391 1860h316l192 -299h-209zM1024 541v938h283v-926q0 -313 -163 -444t-405 -130q-241 1 -404 131t-163 443v926h283v-938q1 -176 69 -250t215 -74t216 74t69 250z" />
    <glyph glyph-name="Uacute" unicode="&#xda;" horiz-adv-x="1478" 
d="M760 1860h315l-299 -299h-209zM1024 541v938h283v-926q0 -313 -163 -444t-405 -130q-241 1 -404 131t-163 443v926h283v-938q1 -176 69 -250t215 -74t216 74t69 250z" />
    <glyph glyph-name="Ucircumflex" unicode="&#xdb;" horiz-adv-x="1478" 
d="M604 1860h254l236 -299h-232l-129 168l-131 -168h-229zM1024 541v938h283v-926q0 -313 -163 -444t-405 -130q-241 1 -404 131t-163 443v926h283v-938q1 -176 69 -250t215 -74t216 74t69 250z" />
    <glyph glyph-name="Udieresis" unicode="&#xdc;" horiz-adv-x="1478" 
d="M805 1819h246v-238h-246v238zM416 1819h246v-238h-246v238zM1024 541v938h283v-926q0 -313 -163 -444t-405 -130q-241 1 -404 131t-163 443v926h283v-938q1 -176 69 -250t215 -74t216 74t69 250z" />
    <glyph glyph-name="Yacute" unicode="&#xdd;" horiz-adv-x="1138" 
d="M596 1860h315l-299 -299h-209zM711 0h-283v590l-408 889h295l254 -586l254 586h295l-407 -889v-590z" />
    <glyph glyph-name="Thorn" unicode="&#xde;" 
d="M422 977v-422h225q152 0 212 53q61 54 61 158t-60 158t-213 53h-225zM422 0h-283v1479h283v-273h258q248 0 385 -108t137 -332q0 -223 -137 -332t-385 -108h-258v-326z" />
    <glyph glyph-name="germandbls" unicode="&#xdf;" horiz-adv-x="1024" 
d="M362 0h-253v1126q0 158 98 255t291 97t294 -94q101 -96 101 -266q0 -116 -34 -188t-122 -115v-4q113 -33 179 -134t67 -271q0 -230 -95 -328t-272 -98q-35 0 -87 14t-78 35l61 180q45 -25 92 -25q125 0 125 234q0 270 -184 270h-53v205h32q123 1 123 191t-151 190
q-133 0 -134 -156v-1118z" />
    <glyph glyph-name="agrave" unicode="&#xe0;" horiz-adv-x="1024" 
d="M170 1499h315l193 -299h-209zM414 168q100 0 233 113v229q-226 -45 -282 -86q-76 -52 -75 -121t35 -102t89 -33zM37 262q0 180 148 280t462 138v90q0 59 -43 93t-112 34q-137 0 -234 -131l-164 125q49 84 165 141t233 53q219 -4 314 -99t95 -331v-501q1 -95 21 -154h-248
l-17 92q-166 -112 -317 -112t-227 82t-76 200z" />
    <glyph glyph-name="aacute" unicode="&#xe1;" horiz-adv-x="1024" 
d="M539 1499h315l-299 -299h-209zM414 168q100 0 233 113v229q-226 -45 -282 -86q-76 -52 -75 -121t35 -102t89 -33zM37 262q0 180 148 280t462 138v90q0 59 -43 93t-112 34q-137 0 -234 -131l-164 125q49 84 165 141t233 53q219 -4 314 -99t95 -331v-501q1 -95 21 -154
h-248l-17 92q-166 -112 -317 -112t-227 82t-76 200z" />
    <glyph glyph-name="acircumflex" unicode="&#xe2;" horiz-adv-x="1024" 
d="M383 1499h254l235 -299h-231l-129 168l-131 -168h-229zM414 168q100 0 233 113v229q-226 -45 -282 -86q-76 -52 -75 -121t35 -102t89 -33zM37 262q0 180 148 280t462 138v90q0 59 -43 93t-112 34q-137 0 -234 -131l-164 125q49 84 165 141t233 53q219 -4 314 -99t95 -331
v-501q1 -95 21 -154h-248l-17 92q-166 -112 -317 -112t-227 82t-76 200z" />
    <glyph glyph-name="atilde" unicode="&#xe3;" horiz-adv-x="1024" 
d="M659 1229q-53 0 -157 36t-144 35q-66 0 -94 -83h-127q15 104 75 177t159 72q61 0 160 -38t130 -38t58 26t35 63h133q-53 -250 -228 -250zM414 168q100 0 233 113v229q-226 -45 -282 -86q-76 -52 -75 -121t35 -102t89 -33zM37 262q0 180 148 280t462 138v90q0 59 -43 93
t-112 34q-137 0 -234 -131l-164 125q49 84 165 141t233 53q219 -4 314 -99t95 -331v-501q1 -95 21 -154h-248l-17 92q-166 -112 -317 -112t-227 82t-76 200z" />
    <glyph glyph-name="adieresis" unicode="&#xe4;" horiz-adv-x="1024" 
d="M584 1458h245v-237h-245v237zM195 1458h245v-237h-245v237zM414 168q100 0 233 113v229q-226 -45 -282 -86q-76 -52 -75 -121t35 -102t89 -33zM37 262q0 180 148 280t462 138v90q0 59 -43 93t-112 34q-137 0 -234 -131l-164 125q49 84 165 141t233 53q219 -4 314 -99
t95 -331v-501q1 -95 21 -154h-248l-17 92q-166 -112 -317 -112t-227 82t-76 200z" />
    <glyph glyph-name="aring" unicode="&#xe5;" horiz-adv-x="1024" 
d="M401 1419q0 -47 33 -79t78 -32t78 32t33 79t-33 79t-78 32t-78 -32t-33 -79zM291 1419q0 92 64 157q65 64 157 64t157 -64t65 -157t-66 -157q-64 -64 -156 -64t-156 64t-65 157zM414 168q100 0 233 113v229q-226 -45 -282 -86q-76 -52 -75 -121t35 -102t89 -33zM37 262
q0 180 148 280t462 138v90q0 59 -43 93t-112 34q-137 0 -234 -131l-164 125q49 84 165 141t233 53q219 -4 314 -99t95 -331v-501q1 -95 21 -154h-248l-17 92q-166 -112 -317 -112t-227 82t-76 200z" />
    <glyph glyph-name="ae" unicode="&#xe6;" horiz-adv-x="1593" 
d="M1536 492h-647v-107q0 -90 61 -145q60 -56 152 -56t142 31t108 96l184 -114q-141 -217 -446 -217q-227 0 -334 165q-140 -100 -236 -133t-194 -32q-137 0 -213 82t-76 200q0 180 150 281q151 100 468 137v90q0 59 -47 93t-116 34q-137 0 -234 -131l-164 125
q49 84 165 141t233 53q219 -6 309 -114q109 115 289 114q210 2 328 -141t118 -348v-104zM1096 897q-94 0 -150 -61t-57 -172h414q-1 111 -57 172t-150 61zM414 168q87 0 241 113v229q-274 -50 -336 -126q-29 -38 -29 -94t35 -89q34 -33 89 -33z" />
    <glyph glyph-name="ccedilla" unicode="&#xe7;" horiz-adv-x="1024" 
d="M512 881q-209 0 -209 -349q0 -178 52 -263t165 -85q133 0 225 170l193 -108q-131 -244 -363 -264l-75 -111q41 10 73 10q76 0 128 -40q53 -41 53 -125t-80 -134t-175 -51q-95 0 -229 53l37 86q91 -32 153 -32t88 18t25 68q0 63 -88 63q-25 0 -86 -12l-41 41l109 166
q-197 16 -307 163t-111 394q0 247 124 397t339 149q152 1 264 -75t156 -209l-211 -82q-37 80 -81 121t-128 41z" />
    <glyph glyph-name="egrave" unicode="&#xe8;" horiz-adv-x="1024" 
d="M170 1499h315l193 -299h-209zM946 492h-643q1 -158 63 -233t151 -75t138 31t107 96l184 -114q-141 -217 -446 -217q-207 0 -329 150t-122 402q0 254 124 404t332 150q209 0 325 -143q116 -144 116 -347v-104zM508 897q-92 0 -148 -61t-57 -172h410q-1 111 -57 172
t-148 61z" />
    <glyph glyph-name="eacute" unicode="&#xe9;" horiz-adv-x="1024" 
d="M539 1499h315l-299 -299h-209zM946 492h-643q1 -158 63 -233t151 -75t138 31t107 96l184 -114q-141 -217 -446 -217q-207 0 -329 150t-122 402q0 254 124 404t332 150q209 0 325 -143q116 -144 116 -347v-104zM508 897q-92 0 -148 -61t-57 -172h410q-1 111 -57 172
t-148 61z" />
    <glyph glyph-name="ecircumflex" unicode="&#xea;" horiz-adv-x="1024" 
d="M383 1499h254l235 -299h-231l-129 168l-131 -168h-229zM946 492h-643q1 -158 63 -233t151 -75t138 31t107 96l184 -114q-141 -217 -446 -217q-207 0 -329 150t-122 402q0 254 124 404t332 150q209 0 325 -143q116 -144 116 -347v-104zM508 897q-92 0 -148 -61t-57 -172
h410q-1 111 -57 172t-148 61z" />
    <glyph glyph-name="edieresis" unicode="&#xeb;" horiz-adv-x="1024" 
d="M584 1458h245v-237h-245v237zM195 1458h245v-237h-245v237zM946 492h-643q1 -158 63 -233t151 -75t138 31t107 96l184 -114q-141 -217 -446 -217q-207 0 -329 150t-122 402q0 254 124 404t332 150q209 0 325 -143q116 -144 116 -347v-104zM508 897q-92 0 -148 -61
t-57 -172h410q-1 111 -57 172t-148 61z" />
    <glyph glyph-name="igrave" unicode="&#xec;" horiz-adv-x="569" 
d="M-53 1499h315l193 -299h-209zM412 1065v-1065h-254v1065h254z" />
    <glyph glyph-name="iacute" unicode="&#xed;" horiz-adv-x="569" 
d="M315 1499h316l-299 -299h-209zM412 1065v-1065h-254v1065h254z" />
    <glyph glyph-name="icircumflex" unicode="&#xee;" horiz-adv-x="569" 
d="M160 1499h254l235 -299h-231l-129 168l-131 -168h-230zM412 1065v-1065h-254v1065h254z" />
    <glyph glyph-name="idieresis" unicode="&#xef;" horiz-adv-x="569" 
d="M360 1458h246v-237h-246v237zM-29 1458h246v-237h-246v237zM412 1065v-1065h-254v1065h254z" />
    <glyph glyph-name="eth" unicode="&#xf0;" horiz-adv-x="1024" 
d="M975 480q0 -212 -125 -356t-338 -144t-338 144t-125 376t125 376t338 144q43 0 86 -10q-31 76 -86 151l-209 -100l-74 131l187 90q-53 59 -133 127l221 70q55 -39 114 -99l205 99l74 -131l-180 -88q121 -162 189 -365t69 -415zM512 184q209 0 209 316t-209 315
q-209 1 -209 -315t209 -316z" />
    <glyph glyph-name="ntilde" unicode="&#xf1;" horiz-adv-x="1138" 
d="M707 1229q-53 0 -157 36t-144 35q-66 0 -95 -83h-127q14 104 74 177t160 72q60 0 160 -38t131 -38t57 26t35 63h133q-53 -250 -227 -250zM385 0h-254v1065h234v-115q195 135 339 135t224 -94t80 -262v-729h-254v692q0 104 -32 146t-99 43q-139 0 -238 -113v-768z" />
    <glyph glyph-name="ograve" unicode="&#xf2;" horiz-adv-x="1024" 
d="M164 1499h315l193 -299h-209zM49 532q0 254 124 404t339 150t339 -150t124 -404t-124 -404t-339 -148q-215 0 -339 149t-124 403zM721 532q0 348 -209 349q-209 -1 -209 -349t209 -348t209 348z" />
    <glyph glyph-name="oacute" unicode="&#xf3;" horiz-adv-x="1024" 
d="M532 1499h316l-299 -299h-209zM49 532q0 254 124 404t339 150t339 -150t124 -404t-124 -404t-339 -148q-215 0 -339 149t-124 403zM721 532q0 348 -209 349q-209 -1 -209 -349t209 -348t209 348z" />
    <glyph glyph-name="ocircumflex" unicode="&#xf4;" horiz-adv-x="1024" 
d="M377 1499h254l235 -299h-231l-129 168l-131 -168h-230zM49 532q0 254 124 404t339 150t339 -150t124 -404t-124 -404t-339 -148q-215 0 -339 149t-124 403zM721 532q0 348 -209 349q-209 -1 -209 -349t209 -348t209 348z" />
    <glyph glyph-name="otilde" unicode="&#xf5;" horiz-adv-x="1024" 
d="M653 1229q-53 0 -157 36t-144 35q-66 0 -94 -83h-127q15 104 75 177t159 72q61 0 160 -38t130 -38t58 26t35 63h133q-53 -250 -228 -250zM49 532q0 254 124 404t339 150t339 -150t124 -404t-124 -404t-339 -148q-215 0 -339 149t-124 403zM721 532q0 348 -209 349
q-209 -1 -209 -349t209 -348t209 348z" />
    <glyph glyph-name="odieresis" unicode="&#xf6;" horiz-adv-x="1024" 
d="M578 1458h245v-237h-245v237zM188 1458h246v-237h-246v237zM49 532q0 254 124 404t339 150t339 -150t124 -404t-124 -404t-339 -148q-215 0 -339 149t-124 403zM721 532q0 348 -209 349q-209 -1 -209 -349t209 -348t209 348z" />
    <glyph glyph-name="divide" unicode="&#xf7;" horiz-adv-x="1228" 
d="M797 143q1 -70 -55 -125t-128 -55t-126 56t-54 125t54 125q54 57 126 57t128 -56t55 -127zM797 920q1 -70 -55 -125t-128 -55t-126 56t-54 125t54 125t126 56t128 -56t55 -126zM1147 422h-1065v221h1065v-221z" />
    <glyph glyph-name="oslash" unicode="&#xf8;" horiz-adv-x="1024" 
d="M512 881q-209 0 -209 -349q1 -112 21 -186l282 512q-41 23 -94 23zM975 538q0 -260 -124 -410t-339 -148q-98 -1 -184 34l-121 -219h-187l173 314q-143 149 -143 413t123 414q124 150 339 149q111 0 197 -41l114 209h187l-168 -305q133 -150 133 -410zM721 532
q0 92 -16 168l-275 -499q37 -16 82 -17q209 0 209 348z" />
    <glyph glyph-name="ugrave" unicode="&#xf9;" horiz-adv-x="1138" 
d="M227 1499h316l192 -299h-209zM754 1065h254v-1065h-234v115q-196 -135 -340 -135t-224 94t-79 262v729h254v-692q0 -105 32 -147t99 -42q139 0 238 113v768z" />
    <glyph glyph-name="uacute" unicode="&#xfa;" horiz-adv-x="1138" 
d="M596 1499h315l-299 -299h-209zM754 1065h254v-1065h-234v115q-196 -135 -340 -135t-224 94t-79 262v729h254v-692q0 -105 32 -147t99 -42q139 0 238 113v768z" />
    <glyph glyph-name="ucircumflex" unicode="&#xfb;" horiz-adv-x="1138" 
d="M440 1499h254l236 -299h-232l-129 168l-131 -168h-229zM754 1065h254v-1065h-234v115q-196 -135 -340 -135t-224 94t-79 262v729h254v-692q0 -105 32 -147t99 -42q139 0 238 113v768z" />
    <glyph glyph-name="udieresis" unicode="&#xfc;" horiz-adv-x="1138" 
d="M641 1458h246v-237h-246v237zM252 1458h246v-237h-246v237zM754 1065h254v-1065h-234v115q-196 -135 -340 -135t-224 94t-79 262v729h254v-692q0 -105 32 -147t99 -42q139 0 238 113v768z" />
    <glyph glyph-name="yacute" unicode="&#xfd;" horiz-adv-x="909" 
d="M481 1499h316l-299 -299h-209zM127 -180q125 0 168 84q41 86 41 120t-14 76l-304 965h256l177 -655h4l182 655h254l-336 -1067q-84 -227 -169 -307t-243 -80q-62 0 -123 8v209q39 -8 107 -8z" />
    <glyph glyph-name="thorn" unicode="&#xfe;" horiz-adv-x="1138" 
d="M590 184q107 0 168 90t61 258t-61 258t-176 91q-70 0 -117 -30q-14 -9 -43 -34t-37 -31v-512q98 -90 205 -90zM131 -389v1868h244v-512q123 119 272 118q205 1 316 -161t111 -396t-116 -392q-115 -157 -311 -156q-65 0 -143 34t-115 84h-4v-487h-254z" />
    <glyph glyph-name="ydieresis" unicode="&#xff;" horiz-adv-x="909" 
d="M526 1458h246v-237h-246v237zM137 1458h246v-237h-246v237zM127 -180q125 0 168 84q41 86 41 120t-14 76l-304 965h256l177 -655h4l182 655h254l-336 -1067q-84 -227 -169 -307t-243 -80q-62 0 -123 8v209q39 -8 107 -8z" />
    <glyph glyph-name="dotlessi" unicode="&#x131;" horiz-adv-x="569" 
d="M412 1065v-1065h-254v1065h254z" />
    <glyph glyph-name="Lslash" unicode="&#x141;" horiz-adv-x="1138" 
d="M442 238h643v-238h-925v594l-160 -66v205l160 66v680h282v-566l324 131v-204l-324 -131v-471z" />
    <glyph glyph-name="lslash" unicode="&#x142;" horiz-adv-x="569" 
d="M412 0h-254v649l-158 -80v205l158 80v625h254v-498l157 80v-205l-157 -80v-776z" />
    <glyph glyph-name="OE" unicode="&#x152;" horiz-adv-x="1933" 
d="M1849 1479v-238h-626v-352h442v-238h-442v-413h661v-238h-825q-81 0 -203 -10t-156 -10q-350 0 -512 189t-161 570q0 381 161 571q162 189 512 189l324 -20h825zM940 545v389q0 190 -63 259t-222 69q-78 0 -135 -20q-140 -50 -185 -235q-26 -108 -26 -268q0 -159 26 -267
t77 -161t108 -73t135 -21q158 0 222 69q63 69 63 259z" />
    <glyph glyph-name="oe" unicode="&#x153;" horiz-adv-x="1593" 
d="M1536 492h-623q3 -164 57 -236t169 -72q65 0 111 31t102 96l184 -114q-141 -217 -414 -217q-201 0 -313 141q-109 -141 -325 -141t-338 150t-122 402q0 254 122 404t335 150t324 -138q109 137 303 138t312 -143q116 -144 116 -347v-104zM1108 897q-86 0 -140 -62
t-55 -171h390q-1 109 -55 171t-140 62zM279 532q1 -348 201 -348t200 348t-201 349q-200 -1 -200 -349z" />
    <glyph glyph-name="Scaron" unicode="&#x160;" 
d="M752 1561h-254l-232 299h230l131 -168l129 168h231zM594 1278q-96 0 -154 -41t-57 -117q0 -76 79 -127q78 -51 190 -92t224 -92t190 -146t79 -229q0 -225 -134 -340t-384 -114q-184 0 -338 95t-215 255l233 102q55 -113 130 -172t192 -59q250 0 250 196q-1 68 -57 121
t-141 86q-213 83 -367 165q-85 46 -141 128t-56 188q0 191 138 303q139 112 329 112t328 -88q138 -87 204 -247l-258 -80q-72 193 -264 193z" />
    <glyph glyph-name="scaron" unicode="&#x161;" horiz-adv-x="909" 
d="M580 1200h-254l-232 299h230l131 -168l129 168h231zM451 897q-143 0 -144 -104q0 -49 55 -83q56 -34 134 -60t156 -60t132 -109q55 -74 56 -182q0 -160 -108 -240t-283 -79q-258 0 -404 215l170 127q111 -154 248 -154q67 0 109 34t42 85t-55 86t-133 61t-156 62
q-78 34 -133 106t-55 174q0 143 103 226t249 83q238 1 375 -161l-160 -140q-104 113 -198 113z" />
    <glyph glyph-name="Ydieresis" unicode="&#x178;" horiz-adv-x="1138" 
d="M641 1819h246v-238h-246v238zM252 1819h246v-238h-246v238zM711 0h-283v590l-408 889h295l254 -586l254 586h295l-407 -889v-590z" />
    <glyph glyph-name="Zcaron" unicode="&#x17d;" horiz-adv-x="1138" 
d="M694 1561h-254l-231 299h229l131 -168l129 168h232zM1085 238v-238h-1052v240l690 1001h-643v238h999v-226l-714 -1015h720z" />
    <glyph glyph-name="zcaron" unicode="&#x17e;" horiz-adv-x="909" 
d="M580 1200h-254l-232 299h230l131 -168l129 168h231zM80 860v205h788v-180l-512 -680h516v-205h-835v180l514 680h-471z" />
    <glyph glyph-name="florin" unicode="&#x192;" 
d="M268 -176q70 0 108 132t161 794h-199v192h244q59 315 137 436t254 121q76 0 160 -18l-33 -217q-59 23 -96 22q-78 0 -112 -79t-58 -265h210v-192h-245q-27 -123 -57 -287t-63 -343t-74 -261q-40 -81 -86 -139q-117 -146 -400 -93l39 217q72 -20 110 -20z" />
    <glyph glyph-name="circumflex" unicode="&#x2c6;" horiz-adv-x="569" 
d="M156 1499h254l235 -299h-231l-129 168l-131 -168h-230z" />
    <glyph glyph-name="caron" unicode="&#x2c7;" horiz-adv-x="569" 
d="M410 1200h-254l-232 299h230l131 -168l129 168h231z" />
    <glyph glyph-name="uni02C9" unicode="&#x2c9;" horiz-adv-x="569" 
d="M639 1266h-709v151h709v-151z" />
    <glyph glyph-name="breve" unicode="&#x2d8;" horiz-adv-x="569" 
d="M270 1200q-147 0 -235 77t-96 222h135q16 -143 213 -143q87 0 139 32t70 111h135q-43 -299 -361 -299z" />
    <glyph glyph-name="dotaccent" unicode="&#x2d9;" horiz-adv-x="569" 
d="M162 1458h246v-237h-246v237z" />
    <glyph glyph-name="ring" unicode="&#x2da;" horiz-adv-x="569" 
d="M174 1419q0 -47 32 -79t79 -32t79 32t31 79q0 47 -31 79q-32 32 -79 32t-79 -32t-32 -79zM63 1419q0 92 65 157q65 64 157 64q93 0 157 -64t64 -157t-65 -157t-157 -64t-156 64q-65 64 -65 157z" />
    <glyph glyph-name="ogonek" unicode="&#x2db;" horiz-adv-x="569" 
d="M356 -336q58 0 187 84l41 -74q-174 -117 -310 -116q-92 0 -153 47t-61 128t45 138q77 95 271 143q72 19 152 29v-25q-289 -109 -288 -256q0 -98 116 -98z" />
    <glyph glyph-name="tilde" unicode="&#x2dc;" horiz-adv-x="569" 
d="M432 1229q-54 0 -158 36t-143 35q-66 0 -94 -83h-127q14 104 74 177t159 72q61 0 161 -38t130 -38q31 0 58 26q26 26 34 63h133q-53 -250 -227 -250z" />
    <glyph glyph-name="hungarumlaut" unicode="&#x2dd;" horiz-adv-x="569" 
d="M463 1499h315l-299 -299h-209zM66 1499h315l-270 -299h-201z" />
    <glyph glyph-name="uni03A9" unicode="&#x3a9;" horiz-adv-x="1607" 
d="M414 186v7q-123 100 -206 257t-83 351q-1 291 193 489t491 197q201 -1 357 -101t234 -252q77 -152 77 -338t-83 -346t-208 -257v-7h321v-186h-573v139q131 80 218 238t87 380t-117 382q-116 159 -314 159t-321 -154t-123 -378q0 -225 89 -390q88 -165 217 -237v-139h-576
v186h320z" />
    <glyph glyph-name="uni03BC" unicode="&#x3bc;" horiz-adv-x="1138" 
d="M754 1065h254v-1065h-234v115q-195 -135 -328 -135q-25 0 -61 4v-373h-254v1454h254v-692q0 -105 32 -147t99 -42q139 0 238 113v768z" />
    <glyph glyph-name="pi" unicode="&#x3c0;" horiz-adv-x="1312" 
d="M1092 901v-579q0 -203 30 -322h-229q-39 61 -39 305v596h-346q-8 -205 -51 -483t-99 -418h-231q57 168 100 437t47 464q-160 0 -233 -24l-29 153q92 66 346 66h920l-21 -195h-165z" />
    <glyph glyph-name="endash" unicode="&#x2013;" horiz-adv-x="1024" 
d="M1024 446h-1024v172h1024v-172z" />
    <glyph glyph-name="emdash" unicode="&#x2014;" horiz-adv-x="2048" 
d="M2048 446h-2048v172h2048v-172z" />
    <glyph glyph-name="quoteleft" unicode="&#x2018;" horiz-adv-x="569" 
d="M426 1192v-291h-283v291l131 307h134l-105 -307h123z" />
    <glyph glyph-name="quoteright" unicode="&#x2019;" horiz-adv-x="569" 
d="M143 1188v291h283v-291l-131 -307h-133l104 307h-123z" />
    <glyph glyph-name="quotesinglbase" unicode="&#x201a;" horiz-adv-x="569" 
d="M143 0v291h283v-291l-131 -307h-133l104 307h-123z" />
    <glyph glyph-name="quotedblleft" unicode="&#x201c;" horiz-adv-x="909" 
d="M369 1192v-291h-283v291l131 307h133l-104 -307h123zM825 1192v-291h-282v291l131 307h133l-105 -307h123z" />
    <glyph glyph-name="quotedblright" unicode="&#x201d;" horiz-adv-x="909" 
d="M541 1188v291h282v-291l-131 -307h-133l105 307h-123zM84 1188v291h283v-291l-131 -307h-134l105 307h-123z" />
    <glyph glyph-name="quotedblbase" unicode="&#x201e;" horiz-adv-x="909" 
d="M541 0v291h282v-291l-131 -307h-133l105 307h-123zM84 0v291h283v-291l-131 -307h-134l105 307h-123z" />
    <glyph glyph-name="dagger" unicode="&#x2020;" horiz-adv-x="1024" 
d="M885 1167v-217l-324 62l53 -330l-65 -834h-74l-65 834l53 330l-324 -62v217l324 -61l-53 393h204l-53 -393z" />
    <glyph glyph-name="daggerdbl" unicode="&#x2021;" horiz-adv-x="1024" 
d="M410 674l53 354l-324 -61v217l324 -62l-53 377h204l-53 -377l324 62v-217l-324 61l53 -354l-53 -355l324 62v-217l-324 61l53 -377h-204l53 377l-324 -61v217l324 -62z" />
    <glyph glyph-name="bullet" unicode="&#x2022;" horiz-adv-x="1024" 
d="M141 739q0 153 108 261q107 108 261 108t262 -108t109 -262q0 -154 -109 -262q-108 -108 -262 -108t-262 109q-108 108 -107 262z" />
    <glyph glyph-name="ellipsis" unicode="&#x2026;" horiz-adv-x="2048" 
d="M487 0h-290v291h290v-291zM1169 0h-290v291h290v-291zM1851 0h-290v291h290v-291z" />
    <glyph glyph-name="perthousand" unicode="&#x2030;" horiz-adv-x="2048" 
d="M156 -20l835 1519h158l-836 -1519h-157zM1716 606q125 0 214 -89t89 -214t-89 -214t-214 -89t-214 89t-89 214t89 214t214 89zM1716 438q-57 0 -96 -39t-39 -96t39 -96t96 -39t96 39t39 96t-39 96t-96 39zM977 606q125 0 214 -89t89 -214t-89 -214t-214 -89t-214 89
t-89 214t89 214t214 89zM977 438q-57 0 -96 -39t-39 -96t39 -96t96 -39t96 39t39 96t-39 96t-96 39zM332 1311q-57 0 -96 -39t-39 -96q0 -56 39 -96t96 -40t96 39t39 97t-39 96q-39 39 -96 39zM332 1479q125 0 214 -89t89 -214t-89 -214q-89 -90 -214 -90t-214 90t-89 214
q0 125 89 214t214 89z" />
    <glyph glyph-name="guilsinglleft" unicode="&#x2039;" horiz-adv-x="681" 
d="M84 526l246 334h229l-252 -334l252 -321h-229z" />
    <glyph glyph-name="guilsinglright" unicode="&#x203a;" horiz-adv-x="681" 
d="M352 860l246 -334l-246 -321h-229l252 321l-252 334h229z" />
    <glyph glyph-name="fraction" unicode="&#x2044;" horiz-adv-x="342" 
d="M-342 -20l846 1519h180l-844 -1519h-182z" />
    <glyph glyph-name="Euro" unicode="&#x20ac;" 
d="M219 739v52h-153l51 192h123q47 250 195 383t382 133t377 -133l-70 -252q-78 82 -150 119t-169 37q-225 0 -297 -287h582l-54 -192h-553v-140h514l-51 -192h-436q66 -250 317 -250q184 0 297 96v-256q-133 -70 -301 -69q-244 0 -384 128t-191 351h-182l53 192h102
q-2 29 -2 88z" />
    <glyph glyph-name="afii61289" unicode="&#x2113;" horiz-adv-x="1124" 
d="M463 1106v-389q293 313 293 538q0 197 -135 197q-66 0 -112 -82t-46 -264zM238 1085q0 269 105 401t261 132t232 -102q78 -102 78 -274t-116 -353q-114 -180 -335 -383v-72q2 -128 63 -194q60 -66 152 -66t169 60t128 143l100 -98q-156 -291 -448 -291q-178 0 -274 99
q-95 99 -111 257q-2 8 -2 25q-111 -86 -119 -93l-64 127l181 144v538z" />
    <glyph glyph-name="trademark" unicode="&#x2122;" horiz-adv-x="2048" 
d="M743 1479v-172h-247v-672h-205v672h-246v172h698zM1905 1479v-844h-205v575l-8 4l-205 -579h-158l-205 577h-8v-577h-205v844h306l190 -529h4l188 529h306z" />
    <glyph glyph-name="Omega" unicode="&#x2126;" horiz-adv-x="1607" 
d="M414 186v7q-123 100 -206 257t-83 351q-1 291 193 489t491 197q201 -1 357 -101t234 -252q77 -152 77 -338t-83 -346t-208 -257v-7h321v-186h-573v139q131 80 218 238t87 380t-117 382q-116 159 -314 159t-321 -154t-123 -378q0 -225 89 -390q88 -165 217 -237v-139h-576
v186h320z" />
    <glyph glyph-name="estimated" unicode="&#x212e;" horiz-adv-x="1832" 
d="M1448 772v416q0 31 -18 49q-222 217 -516 217t-513 -223q-20 -20 -20 -51v-408q0 -14 12 -14h1047q8 0 8 14zM1759 719h-1366q-12 0 -12 -10v-414q0 -25 18 -47q219 -225 529 -225t532 251h121q-115 -135 -291 -214t-377 -78q-348 0 -595 221q-246 221 -246 535t246 538
q247 223 597 223t597 -222t247 -540v-18z" />
    <glyph glyph-name="partialdiff" unicode="&#x2202;" 
d="M557 178h2q131 0 219 136t111 321q-23 73 -99 139t-191 66q-114 0 -198 -106t-84 -244q0 -140 67 -226t173 -86zM562 1653q240 0 411 -212q172 -212 172 -591t-162 -621t-448 -241q-213 0 -332 154t-119 341q0 241 138 391t339 150q129 0 220 -63t130 -130h2q2 20 2 80
q0 236 -111 395q-112 158 -279 158t-300 -100l-71 166q168 123 408 123z" />
    <glyph glyph-name="Delta" unicode="&#x2206;" horiz-adv-x="1458" 
d="M305 186h834l-279 697q-16 49 -67 189t-66 190h-8q-9 -42 -59 -176t-62 -171zM61 0v139l533 1360h280l521 -1358v-141h-1334z" />
    <glyph glyph-name="product" unicode="&#x220f;" horiz-adv-x="1583" 
d="M1528 1257h-238v-1460h-229v1460h-541v-1460h-231v1460h-236v205h1475v-205z" />
    <glyph glyph-name="summation" unicode="&#x2211;" horiz-adv-x="1239" 
d="M1194 -203h-1145v146l561 686l-538 676v157h1087v-196h-766v-6l484 -598l-529 -646v-8h846v-211z" />
    <glyph glyph-name="minus" unicode="&#x2212;" horiz-adv-x="1228" 
d="M1147 422h-1065v221h1065v-221z" />
    <glyph glyph-name="uni2215" unicode="&#x2215;" horiz-adv-x="342" 
d="M-342 -20l846 1519h180l-844 -1519h-182z" />
    <glyph glyph-name="uni2219" unicode="&#x2219;" horiz-adv-x="624" 
d="M156 531q0 65 44 111t108 46t112 -46q47 -46 47 -112q0 -64 -47 -108q-48 -44 -112 -45q-64 0 -108 45t-44 109z" />
    <glyph glyph-name="radical" unicode="&#x221a;" horiz-adv-x="1292" 
d="M1309 1747l-498 -2052h-193l-344 940l-161 -64l-43 129l346 140l256 -727q12 -53 24 -99q12 -45 17 -65h4q10 74 33 172l393 1626h166z" />
    <glyph glyph-name="infinity" unicode="&#x221e;" horiz-adv-x="1687" 
d="M1239 827h-2q-82 0 -149 -57t-115 -110q-47 -54 -51 -58q108 -129 176 -179t152 -50t141 68q55 69 55 164t-57 159q-58 63 -150 63zM459 373h2q72 0 134 45q26 18 38 26t39 36t34 35t36 40q30 33 32 35q-145 188 -228 220q-44 17 -97 17q-92 0 -150 -66q-57 -67 -57 -163
t61 -161q62 -64 156 -64zM1581 606v-2q0 -162 -101 -262t-241 -100q-98 0 -191 58t-202 194q-102 -123 -194 -188q-92 -64 -219 -64q-128 0 -227 101q-100 101 -100 255t100 255t253 101q113 0 206 -64t189 -183q6 5 36 39q139 158 219 183q81 25 144 25q143 0 235 -96
t93 -252z" />
    <glyph glyph-name="integral" unicode="&#x222b;" horiz-adv-x="825" 
d="M297 1249q0 553 360 553q72 1 129 -28l-26 -156q-36 20 -96 20t-97 -51q-66 -78 -65 -360q0 -164 15 -502t15 -522q0 -275 -80 -415t-259 -140q-96 0 -162 35l32 161q49 -24 105 -24q162 1 162 383q0 186 -17 530q-16 344 -16 516z" />
    <glyph glyph-name="approxequal" unicode="&#x2248;" horiz-adv-x="1228" 
d="M840 258q-64 0 -116 20t-154 80t-164 60q-104 0 -169 -78q-24 -29 -61 -80l-86 80q51 96 135 154t183 59q99 0 204 -65q27 -15 34 -19q27 -15 83 -46q56 -30 116 -30q59 0 105 37t99 119l86 -80q-119 -211 -295 -211zM842 647q-62 -1 -114 19t-140 69q-120 74 -182 74
q-101 0 -169 -79q-24 -28 -61 -79l-86 80q51 97 135 155t179 58t174 -47q10 -6 34 -19q24 -12 30 -16t26 -15t24 -14t20 -13t23 -11q7 -2 21 -8t21 -7q7 -2 26 -6t41 -4q60 0 108 38t97 118l86 -80q-117 -213 -293 -213z" />
    <glyph glyph-name="notequal" unicode="&#x2260;" horiz-adv-x="1228" 
d="M1120 883v-138h-377l-137 -301h514v-137h-569l-115 -254l-110 47l94 207h-311v137h368l135 301h-503v138h559l112 247l111 -47l-92 -200h321z" />
    <glyph glyph-name="lessequal" unicode="&#x2264;" horiz-adv-x="1228" 
d="M1120 -18h-1011v139h1011v-139zM1114 205l-995 481v148l995 479v-160l-852 -391v-4l852 -393v-160z" />
    <glyph glyph-name="greaterequal" unicode="&#x2265;" horiz-adv-x="1228" 
d="M1118 -18h-1007v139h1007v-139zM121 1313l995 -482v-145l-993 -481v160l850 393v4l-852 391v160z" />
    <glyph glyph-name="lozenge" unicode="&#x25ca;" horiz-adv-x="1292" 
d="M971 725l-281 543q-33 68 -41 112h-6q-12 -41 -43 -112l-281 -533l285 -549q27 -61 37 -108h8q23 74 39 106zM1180 731l-445 -835h-186l-436 835l444 836h184z" />
    </font>
</defs>
</svg>
